<?xml version="1.0" encoding="UTF-8" standalone="no"?>
<!DOCTYPE svg PUBLIC "-//W3C//DTD SVG 1.1//EN" "http://www.w3.org/Graphics/SVG/1.1/DTD/svg11.dtd">
<svg width="100%" height="100%" viewBox="0 0 106 32" version="1.1" xmlns="http://www.w3.org/2000/svg" xmlns:xlink="http://www.w3.org/1999/xlink" xml:space="preserve" xmlns:serif="http://www.serif.com/" style="fill-rule:evenodd;clip-rule:evenodd;stroke-linejoin:round;stroke-miterlimit:2;">
    <g transform="matrix(1,0,0,1,-40,-12211)">
        <path d="M103.85,12218C104.867,12218 105.705,12218.1 105.833,12218.2C105.833,12218.2 104.528,12222.5 103.184,12227L102.977,12227.7C101.977,12231 100.991,12234.3 100.539,12235.8C99.363,12239.7 98.122,12243 92.919,12243C90.158,12243 88.75,12242.1 88.75,12240.9C88.75,12240.2 89.201,12239.3 89.618,12238.6C89.84,12238.7 90.835,12239.3 92.436,12239.3C94.641,12239.3 95.127,12237.9 95.523,12236.6L94.019,12236.6L87.917,12218.2C88.078,12218.1 88.667,12218 89.777,12218C92.389,12218 93.314,12219 93.929,12220.9C94.185,12221.7 94.82,12223.7 95.46,12225.8L95.634,12226.3C96.243,12228.2 96.825,12230.1 97.053,12230.8L97.109,12231C97.139,12231.1 97.155,12231.1 97.155,12231.1C97.155,12231.1 99.437,12223.2 100.056,12221C100.642,12218.9 102.112,12218 103.85,12218ZM48.695,12217.5C55.624,12217.5 56.767,12222.2 56.767,12225L56.767,12232.8C56.767,12235.1 57.384,12236 57.667,12236.4C57.409,12236.5 56.634,12236.9 54.799,12236.9C52.289,12236.9 51.965,12235.3 51.823,12234.8C51.464,12235.2 49.797,12236.9 46.395,12236.9C42.56,12236.9 40,12234.4 40,12230.8C40,12226.6 43.963,12224.7 49.799,12224.7L51.531,12224.7L51.531,12224.2C51.531,12222.7 50.66,12221.2 47.59,12221.2C44.377,12221.2 42.565,12223.1 42.177,12223.4C41.777,12222.8 41.043,12221.8 41.043,12220.7C41.043,12219 43.439,12217.5 48.695,12217.5ZM138.453,12217.6C142.192,12217.6 145.043,12218.7 145.043,12220.4C145.043,12221.2 144.404,12222.3 143.941,12223C143.557,12222.7 141.575,12221.2 138.835,12221.2C136.771,12221.2 136.067,12222 136.067,12222.8C136.067,12223.7 136.657,12224.2 137.885,12224.5C138.517,12224.6 139.312,12224.8 139.798,12225C143.199,12225.7 145.455,12227.6 145.455,12230.8C145.455,12233.9 142.937,12236.9 137.196,12236.9C133.082,12236.9 130.595,12235.8 130.595,12234.2C130.595,12233.2 131.262,12232.3 131.837,12231.4C132.146,12231.7 134.238,12233.3 136.884,12233.3C139.16,12233.3 140.181,12232.5 140.181,12231.5C140.181,12230.4 139.577,12229.7 137.915,12229.4C137.269,12229.2 136.464,12229 135.884,12228.9C132.969,12228.2 130.818,12226.4 130.818,12223.3C130.818,12220.1 133.645,12217.6 138.453,12217.6ZM124.88,12218C127.431,12218 128.366,12219.1 128.366,12221.5L128.366,12236.6C128.312,12236.6 127.539,12236.8 126.625,12236.8C123.745,12236.8 123.129,12235.2 123.129,12233.3L123.129,12218.2C123.41,12218.1 123.879,12218 124.88,12218ZM80.893,12217.6C84.812,12217.6 87.047,12220 87.047,12224.3L87.047,12236.6L81.811,12236.6L81.811,12224.5C81.811,12223.2 81.235,12221.8 78.908,12221.8C76.739,12221.8 76.008,12223 76.008,12224.5L76.008,12236.6L70.772,12236.6L70.772,12224.5C70.772,12223.2 70.197,12221.8 67.868,12221.8C65.701,12221.8 64.969,12223 64.969,12224.5L64.969,12236.6L59.733,12236.6L59.733,12218.2C59.97,12218.1 60.664,12218 61.468,12218C63.835,12218 64.519,12219.3 64.719,12219.9C65.189,12219.4 66.605,12217.6 69.851,12217.6C73.515,12217.6 74.637,12219.6 75.032,12220.3C75.633,12219.7 77.359,12217.6 80.893,12217.6ZM117.626,12217.6C120.1,12217.6 121.488,12218.4 121.67,12218.5C120.526,12219.1 119.688,12222.8 116.952,12222.8C115.662,12222.8 114.864,12222.4 114.099,12222.4C113.452,12222.4 113.058,12222.9 113.058,12223.6L113.058,12236.6L107.835,12236.6L107.835,12218.2C108.058,12218.1 108.656,12218 109.552,12218C111.851,12218 112.664,12218.9 112.951,12220.3C113.275,12219.6 114.571,12217.6 117.626,12217.6ZM51.531,12227.5L50.839,12227.5C47.104,12227.5 45.236,12228.5 45.236,12230.8C45.236,12232.3 46.327,12233.5 48.345,12233.5C49.984,12233.5 51.531,12232.3 51.531,12231.4L51.531,12227.5ZM125.733,12211C127.409,12211 128.429,12212.1 128.429,12213.4C128.429,12214.7 127.363,12215.8 125.733,12215.8C124.106,12215.8 123.037,12214.8 123.037,12213.4C123.037,12212.1 123.984,12211 125.733,12211Z" style="fill:rgb(65,0,130);"/>
    </g>
</svg>
